<svg xmlns="http://www.w3.org/2000/svg" viewBox="0 0 512 512" role="img" aria-label="voilier avec flèche vers le mât">
  <rect width="512" height="512" fill="#fff"/>
  <path d="M64 352h384l-36 58H98z" fill="#2f9ee9" stroke="#111" stroke-width="12" stroke-linejoin="round"/>
  <path d="M92 348h332l-18 28H110z" fill="#fff" stroke="#111" stroke-width="8" stroke-linejoin="round"/>
  <path d="M218 334h92l20 28H198z" fill="#f6f8fa" stroke="#111" stroke-width="8" stroke-linejoin="round"/>
  <path d="M248 78v282" fill="none" stroke="#b87324" stroke-width="22" stroke-linecap="round"/>
  <path d="M248 78v282" fill="none" stroke="#111" stroke-width="30" stroke-linecap="round" opacity=".18"/>
  <path d="M248 96L108 334h140z" fill="#fff8df" stroke="#111" stroke-width="9" stroke-linejoin="round"/>
  <path d="M248 112L390 334H248z" fill="#f7fbff" stroke="#111" stroke-width="9" stroke-linejoin="round"/>
  <path d="M132 296c35 18 72 27 116 26" fill="none" stroke="#c9c9c9" stroke-width="5"/>
  <path d="M278 158c38 28 70 76 95 144" fill="none" stroke="#d3d9dd" stroke-width="5"/>
  <path d="M388 115l-84 82h48l-58 72 128-106h-48z" fill="#111" stroke="#fff" stroke-width="10" stroke-linejoin="round"/>
  <circle cx="248" cy="72" r="16" fill="#d99032" stroke="#111" stroke-width="8"/>
</svg>
